<svg width="264" height="63" viewBox="0 0 264 63" fill="none" xmlns="http://www.w3.org/2000/svg">
<path d="M20.5887 61.4472C14.9112 61.4472 10.0598 59.4819 6.03436 55.5513C2.00896 51.6208 -0.00249328 46.8167 2.31933e-06 41.1393C2.31933e-06 36.2728 1.46617 31.9367 4.39849 28.131C7.33082 24.3252 11.1678 21.892 15.9094 20.8313C17.4692 15.0914 20.5887 10.4434 25.2679 6.88717C29.9472 3.33094 35.2503 1.55283 41.1774 1.55283C48.477 1.55283 54.6698 4.09584 59.7559 9.18187C64.8419 14.2679 67.3837 20.4595 67.3812 27.7566C71.6861 28.2557 75.2585 30.1125 78.0985 33.3268C80.9385 36.5411 82.3572 40.2995 82.3547 44.6019C82.3547 49.2811 80.7164 53.2591 77.4397 56.5359C74.1629 59.8126 70.1862 61.4497 65.5095 61.4472H20.5887Z" fill="#E8F9FD"/>
<path d="M129.017 42.2032H116.9L114.895 48H108.488L119.428 17.534H126.532L137.472 48H131.021L129.017 42.2032ZM127.36 37.3217L122.958 24.5948L118.556 37.3217H127.36ZM139.992 35.9269C139.992 33.4281 140.501 31.2488 141.518 29.3892C142.535 27.5005 143.944 26.0476 145.745 25.0307C147.547 23.9846 149.61 23.4616 151.934 23.4616C154.927 23.4616 157.397 24.2171 159.344 25.728C161.32 27.2099 162.642 29.302 163.31 32.0043H156.729C156.38 30.9582 155.784 30.1446 154.942 29.5635C154.128 28.9533 153.111 28.6482 151.891 28.6482C150.147 28.6482 148.767 29.2875 147.75 30.566C146.733 31.8154 146.225 33.6024 146.225 35.9269C146.225 38.2224 146.733 40.0094 147.75 41.2879C148.767 42.5373 150.147 43.1621 151.891 43.1621C154.361 43.1621 155.973 42.0579 156.729 39.8496H163.31C162.642 42.4647 161.32 44.5423 159.344 46.0823C157.368 47.6223 154.898 48.3923 151.934 48.3923C149.61 48.3923 147.547 47.8838 145.745 46.8668C143.944 45.8207 142.535 44.3679 141.518 42.5083C140.501 40.6196 139.992 38.4258 139.992 35.9269ZM173.882 15.747V48H167.78V15.747H173.882ZM190.633 48.3923C188.308 48.3923 186.216 47.8838 184.357 46.8668C182.497 45.8207 181.03 44.3534 179.955 42.4647C178.908 40.576 178.385 38.3968 178.385 35.9269C178.385 33.4571 178.923 31.2779 179.998 29.3892C181.102 27.5005 182.599 26.0476 184.487 25.0307C186.376 23.9846 188.483 23.4616 190.807 23.4616C193.132 23.4616 195.238 23.9846 197.127 25.0307C199.016 26.0476 200.498 27.5005 201.573 29.3892C202.677 31.2779 203.229 33.4571 203.229 35.9269C203.229 38.3968 202.662 40.576 201.529 42.4647C200.425 44.3534 198.914 45.8207 196.996 46.8668C195.108 47.8838 192.986 48.3923 190.633 48.3923ZM190.633 43.0749C191.737 43.0749 192.769 42.8134 193.727 42.2904C194.715 41.7383 195.5 40.9247 196.081 39.8496C196.662 38.7745 196.953 37.4669 196.953 35.9269C196.953 33.6315 196.343 31.8735 195.122 30.6531C193.931 29.4037 192.463 28.779 190.72 28.779C188.977 28.779 187.509 29.4037 186.318 30.6531C185.156 31.8735 184.575 33.6315 184.575 35.9269C184.575 38.2224 185.141 39.9949 186.274 41.2443C187.437 42.4647 188.889 43.0749 190.633 43.0749ZM230.5 23.8539V48H224.354V44.949C223.57 45.9951 222.538 46.8232 221.26 47.4334C220.01 48.0145 218.645 48.3051 217.163 48.3051C215.274 48.3051 213.603 47.9128 212.151 47.1283C210.698 46.3147 209.55 45.1379 208.707 43.5979C207.894 42.0288 207.487 40.1692 207.487 38.019V23.8539H213.589V37.1473C213.589 39.0651 214.068 40.547 215.027 41.593C215.986 42.61 217.294 43.1185 218.95 43.1185C220.635 43.1185 221.957 42.61 222.916 41.593C223.875 40.547 224.354 39.0651 224.354 37.1473V23.8539H230.5ZM234.951 35.8398C234.951 33.399 235.431 31.2343 236.39 29.3456C237.378 27.4569 238.714 26.0041 240.4 24.9871C242.085 23.9701 243.959 23.4616 246.022 23.4616C247.591 23.4616 249.088 23.8103 250.511 24.5076C251.935 25.1759 253.068 26.0767 253.911 27.2099V15.747H260.1V48H253.911V44.426C253.155 45.6173 252.095 46.5762 250.729 47.3026C249.364 48.0291 247.78 48.3923 245.978 48.3923C243.944 48.3923 242.085 47.8692 240.4 46.8232C238.714 45.7772 237.378 44.3098 236.39 42.4211C235.431 40.5034 234.951 38.3096 234.951 35.8398ZM253.955 35.9269C253.955 34.445 253.664 33.1811 253.083 32.135C252.502 31.0599 251.717 30.2463 250.729 29.6943C249.741 29.1131 248.681 28.8226 247.548 28.8226C246.414 28.8226 245.368 29.0986 244.409 29.6507C243.451 30.2028 242.666 31.0163 242.056 32.0914C241.475 33.1375 241.184 34.3869 241.184 35.8398C241.184 37.2926 241.475 38.5711 242.056 39.6752C242.666 40.7503 243.451 41.5785 244.409 42.1596C245.397 42.7407 246.443 43.0313 247.548 43.0313C248.681 43.0313 249.741 42.7553 250.729 42.2032C251.717 41.622 252.502 40.8085 253.083 39.7624C253.664 38.6873 253.955 37.4088 253.955 35.9269Z" fill="#E8F9FD"/>
</svg>
