<svg width="297" height="297" viewBox="0 0 297 297" fill="none" xmlns="http://www.w3.org/2000/svg">
<path d="M148.938 19C183.399 19 216.449 32.6898 240.817 57.0578C265.185 81.4258 278.875 114.476 278.875 148.938C278.875 183.399 265.185 216.449 240.817 240.817C216.449 265.185 183.399 278.875 148.938 278.875C114.476 278.875 81.4258 265.185 57.0578 240.817C32.6898 216.449 19 183.399 19 148.938C19 114.476 32.6898 81.4258 57.0578 57.0578C81.4258 32.6898 114.476 19 148.938 19ZM132.751 174.572L103.886 145.689C102.852 144.654 101.623 143.833 100.271 143.273C98.919 142.713 97.4699 142.425 96.0065 142.425C94.5431 142.425 93.094 142.713 91.742 143.273C90.39 143.833 89.1615 144.654 88.1267 145.689C86.0369 147.779 84.8628 150.613 84.8628 153.569C84.8628 156.524 86.0369 159.359 88.1267 161.449L124.88 198.202C125.912 199.242 127.14 200.068 128.492 200.631C129.845 201.194 131.295 201.484 132.76 201.484C134.225 201.484 135.676 201.194 137.028 200.631C138.381 200.068 139.608 199.242 140.64 198.202L216.746 122.078C217.795 121.047 218.629 119.819 219.201 118.465C219.773 117.11 220.07 115.656 220.077 114.186C220.084 112.715 219.8 111.258 219.241 109.899C218.682 108.539 217.859 107.303 216.82 106.263C215.781 105.223 214.546 104.399 213.187 103.838C211.828 103.277 210.371 102.991 208.901 102.996C207.431 103.002 205.976 103.298 204.621 103.868C203.266 104.438 202.037 105.271 201.005 106.318L132.751 174.572Z" fill="#0AA1DD"/>
</svg>
